<?xml version="1.0" encoding="UTF-8" standalone="no"?>
<!-- Created with Inkscape (http://www.inkscape.org/) -->

<svg
   xmlns:dc="http://purl.org/dc/elements/1.1/"
   xmlns:cc="http://creativecommons.org/ns#"
   xmlns:rdf="http://www.w3.org/1999/02/22-rdf-syntax-ns#"
   xmlns:svg="http://www.w3.org/2000/svg"
   xmlns="http://www.w3.org/2000/svg"
   xmlns:sodipodi="http://sodipodi.sourceforge.net/DTD/sodipodi-0.dtd"
   xmlns:inkscape="http://www.inkscape.org/namespaces/inkscape"
   width="744.09448819"
   height="1052.3622047"
   id="svg2"
   version="1.1"
   inkscape:version="0.91 r13725"
   sodipodi:docname="docfish.svg"
   inkscape:export-filename="/home/vanessa/Documents/Dropbox/Code/researchapps/pubfish/images/logo/docfish.png"
   inkscape:export-xdpi="90"
   inkscape:export-ydpi="90">
  <defs
     id="defs4">
    <inkscape:path-effect
       effect="spiro"
       id="path-effect3890"
       is_visible="true" />
  </defs>
  <sodipodi:namedview
     id="base"
     pagecolor="#ffffff"
     bordercolor="#666666"
     borderopacity="1.0"
     inkscape:pageopacity="0.0"
     inkscape:pageshadow="2"
     inkscape:zoom="1.979899"
     inkscape:cx="349.09873"
     inkscape:cy="606.22066"
     inkscape:document-units="px"
     inkscape:current-layer="layer1"
     showgrid="false"
     inkscape:window-width="1535"
     inkscape:window-height="876"
     inkscape:window-x="65"
     inkscape:window-y="24"
     inkscape:window-maximized="1" />
  <metadata
     id="metadata7">
    <rdf:RDF>
      <cc:Work
         rdf:about="">
        <dc:format>image/svg+xml</dc:format>
        <dc:type
           rdf:resource="http://purl.org/dc/dcmitype/StillImage" />
        <dc:title />
      </cc:Work>
    </rdf:RDF>
  </metadata>
  <g
     inkscape:label="Layer 1"
     inkscape:groupmode="layer"
     id="layer1">
    <g
       id="g3904"
       transform="matrix(0.49178142,0.87071869,-0.87071869,0.49178142,557.22018,-76.364088)"
       inkscape:export-filename="/home/vanessa/Documents/Dropbox/Code/researchapps/docfish/img/logo/docfish.png"
       inkscape:export-xdpi="66.70713"
       inkscape:export-ydpi="66.70713">
      <path
         inkscape:export-ydpi="66.70713"
         inkscape:export-xdpi="66.70713"
         inkscape:export-filename="/home/vanessa/Desktop/logo.png"
         transform="matrix(0.53966381,-1.0942459,0.81512829,0.72445638,-164.1787,385.58655)"
         d="M 393.9595,435.15897 A 116.16754,116.16754 0 0 1 277.79196,551.32651 116.16754,116.16754 0 0 1 161.62442,435.15897 116.16754,116.16754 0 0 1 277.79196,318.99142 116.16754,116.16754 0 0 1 393.9595,435.15897 Z"
         sodipodi:ry="116.16754"
         sodipodi:rx="116.16754"
         sodipodi:cy="435.15897"
         sodipodi:cx="277.79196"
         id="path3915"
         style="fill:#dbe2e3;fill-opacity:1;stroke:none"
         sodipodi:type="arc" />
      <g
         inkscape:export-filename="/home/vanessa/Desktop/logo.png"
         inkscape:export-ydpi="66.70713"
         inkscape:export-xdpi="66.70713"
         style="fill:#003380;fill-opacity:1"
         transform="matrix(2.6704655,0.05239048,-0.05167201,2.6338436,-975.61024,-892.07336)"
         id="g3017">
        <path
           sodipodi:nodetypes="sssssssscccccsssss"
           inkscape:connector-curvature="0"
           id="path3035"
           d="m 543.675,504.38534 c -1.56792,6.37079 -3.08172,9.84938 -6.5481,15.04697 -4.22845,6.3403 -9.29334,10.73774 -16.41189,14.24915 -7.10566,3.50504 -12.35474,4.49784 -21.07731,3.98653 -11.54825,-0.67696 -19.58319,-4.41719 -27.4829,-12.79315 -15.88168,-16.83919 -15.12937,-43.43949 1.67513,-59.22875 5.56338,-5.22729 14.05153,-9.87812 19.04126,-10.43312 3.06341,-0.34074 3.33211,-0.23497 4.01997,1.58226 1.32042,3.48837 -0.92783,9.3761 -6.75155,17.68101 -3.42241,6.50627 -10.29804,26.53682 -8.60954,33.96072 9.66138,-4.30847 18.54695,-15.83318 21.27111,-23.69586 1.64387,8.01554 14.13503,22.65031 21.02592,23.75796 2.30501,-6.52928 -6.84752,-30.77592 -8.73154,-33.79857 -6.97022,-11.14815 -8.44752,-15.09562 -6.79843,-18.16613 0.74418,-1.38561 1.2109,-1.50497 4.18479,-1.07023 3.93138,0.57472 10.36389,3.60745 15.19214,7.16263 7.12999,5.25001 13.18094,13.93349 15.34482,22.02074 1.46599,5.47892 1.7872,15.14203 0.65612,19.73784 z"
           style="fill:#8c1515;fill-opacity:1;stroke:none" />
      </g>
    </g>
    <path
       sodipodi:type="arc"
       style="fill:#dbe2e3;fill-opacity:1;stroke:none"
       id="path3936"
       sodipodi:cx="385.3732"
       sodipodi:cy="287.17163"
       sodipodi:rx="14.647212"
       sodipodi:ry="14.647212"
       d="m 400.02041,287.17163 a 14.647212,14.647212 0 1 1 -29.29442,0 14.647212,14.647212 0 1 1 29.29442,0 z"
       transform="matrix(0.95617605,0,0,0.95617605,-107.06569,39.95727)"
       inkscape:export-filename="/home/vanessa/Documents/Dropbox/Code/researchapps/docfish/img/logo/docfish.png"
       inkscape:export-xdpi="66.70713"
       inkscape:export-ydpi="66.70713" />
    <path
       sodipodi:type="arc"
       style="fill:#dbe2e3;fill-opacity:1;stroke:none"
       id="path3936-8"
       sodipodi:cx="385.3732"
       sodipodi:cy="287.17163"
       sodipodi:rx="14.647212"
       sodipodi:ry="14.647212"
       d="m 400.02041,287.17163 a 14.647212,14.647212 0 1 1 -29.29442,0 14.647212,14.647212 0 1 1 29.29442,0 z"
       transform="matrix(0.59359179,0,0,0.59359179,59.226375,119.45115)"
       inkscape:export-filename="/home/vanessa/Documents/Dropbox/Code/researchapps/docfish/img/logo/docfish.png"
       inkscape:export-xdpi="66.70713"
       inkscape:export-ydpi="66.70713" />
    <path
       sodipodi:type="arc"
       style="fill:#dbe2e3;fill-opacity:1;stroke:none"
       id="path3936-8-9"
       sodipodi:cx="385.3732"
       sodipodi:cy="287.17163"
       sodipodi:rx="14.647212"
       sodipodi:ry="14.647212"
       d="m 400.02041,287.17163 a 14.647212,14.647212 0 1 1 -29.29442,0 14.647212,14.647212 0 1 1 29.29442,0 z"
       transform="matrix(0.38640078,0,0,0.38640078,111.04219,167.30168)"
       inkscape:export-filename="/home/vanessa/Documents/Dropbox/Code/researchapps/docfish/img/logo/docfish.png"
       inkscape:export-xdpi="66.70713"
       inkscape:export-ydpi="66.70713" />
    <path
       sodipodi:type="arc"
       style="fill:#000000;fill-opacity:1;stroke:#ffffff;stroke-opacity:1;stroke-width:13.47727535;stroke-miterlimit:4;stroke-dasharray:none"
       id="path3936-8-3"
       sodipodi:cx="385.3732"
       sodipodi:cy="287.17163"
       sodipodi:rx="14.647212"
       sodipodi:ry="14.647212"
       d="m 400.02041,287.17163 a 14.647212,14.647212 0 1 1 -29.29442,0 14.647212,14.647212 0 1 1 29.29442,0 z"
       transform="matrix(0.59359179,0,0,0.59359179,226.82443,151.55917)"
       inkscape:export-filename="/home/vanessa/Documents/Dropbox/Code/researchapps/docfish/img/logo/docfish.png"
       inkscape:export-xdpi="66.70713"
       inkscape:export-ydpi="66.70713" />
    <path
       style="fill:none;stroke:#ffffff;stroke-width:9.18971825;stroke-linecap:butt;stroke-linejoin:miter;stroke-miterlimit:4;stroke-dasharray:none;stroke-opacity:1"
       d="m 492.60504,380.15018 c 3.33829,0.86455 6.9381,0.68928 10.17662,-0.49547 3.23852,-1.18475 6.10162,-3.37382 8.09395,-6.18847 2.01595,-2.84803 3.11809,-6.25556 3.71982,-9.6926 0.60174,-3.43704 0.72966,-6.93628 0.96647,-10.41755 0.0741,-1.08931 0.15898,-2.17787 0.23157,-3.26728 0.17064,-2.56085 0.27337,-5.12566 0.39224,-7.68943 0.21547,-4.64711 0.48403,-9.29176 0.80562,-13.93274"
       id="path3888"
       inkscape:path-effect="#path-effect3890"
       inkscape:original-d="m 492.60504,380.15018 c 0,0 10.6068,4.8316 18.27057,-6.68394 5.14346,-7.72854 0.70723,-6.11143 4.68629,-20.11015 0.0467,-0.16442 0.12893,-1.41131 0.23157,-3.26728 0.11271,-2.03777 0.25007,-4.80978 0.39224,-7.68943 0.31927,-6.46694 0.66277,-13.47678 0.80562,-13.93274"
       inkscape:connector-curvature="0"
       sodipodi:nodetypes="cssssc"
       inkscape:export-filename="/home/vanessa/Documents/Dropbox/Code/researchapps/docfish/img/logo/docfish.png"
       inkscape:export-xdpi="66.70713"
       inkscape:export-ydpi="66.70713" />
  </g>
</svg>
