<svg xmlns="http://www.w3.org/2000/svg" xmlns:svg="http://www.w3.org/2000/svg" id="svg3697" width="744.094" height="1052.362" version="1.1"><defs id="defs3699"><clipPath id="clipPath132"><path id="path134" d="M 0,800 800,800 800,0 0,0 0,800 z"/></clipPath><clipPath id="clipPath184"><path id="path186" d="M 0,800 800,800 800,0 0,0 0,800 z"/></clipPath></defs><metadata id="metadata3702"/><g id="layer1"><g id="g180" transform="matrix(1.25,0,0,-1.25,-109.33137,1349.2518)"><g id="g182" clip-path="url(#clipPath184)"><g id="g188" transform="translate(432.3398,694.4639)"><path id="path190" d="m 0,0 c 0,21.22 -18.252,38.441 -40.855,38.662 l 0,-0.025 c -0.006,0 -0.013,-10e-4 -0.02,-10e-4 -0.006,0 -0.013,10e-4 -0.02,10e-4 l 0,0.025 C -63.498,38.441 -81.75,21.22 -81.75,0 c 0,-3.331 0.468,-6.557 1.313,-9.641 l 79.124,0 C -0.467,-6.557 0,-3.331 0,0" style="fill:#414042;fill-opacity:1;fill-rule:nonzero;stroke:none"/></g><g id="g192" transform="translate(329.1597,627.1924)"><path id="path194" d="m 0,0 c -7.887,0 -14.279,-4.389 -14.279,-9.804 0,-2.72 1.613,-5.179 4.217,-6.955 1.759,3.163 5.316,5.331 9.427,5.331 4.366,0 8.114,-2.443 9.739,-5.928 3.161,1.798 5.175,4.513 5.175,7.552 C 14.279,-4.389 7.886,0 0,0" style="fill:#414042;fill-opacity:1;fill-rule:nonzero;stroke:none"/></g><g id="g196" transform="translate(365.2603,689.3726)"><path id="path198" d="m 0,0 c 0,13.887 11.455,25.336 25.647,25.765 l 0.486,-0.006 c 0.006,0 0.013,-0.001 0.018,-0.002 l 0,-0.006 c 0.018,0 0.036,10e-4 0.054,0.003 0.017,-0.002 0.035,-0.003 0.053,-0.003 l 0,0.006 c 0.006,10e-4 0.012,0.002 0.018,0.002 l 0.487,0.006 C 40.955,25.336 52.41,13.887 52.41,0 c 0,-1.526 -0.146,-3.048 -0.422,-4.55 l 5.541,0 c 0.226,1.507 0.353,3.026 0.353,4.55 0,17.053 -14.181,31.071 -31.612,31.249 l -0.012,0 0,0.001 -0.053,-0.001 -0.054,0.001 0,-0.001 -0.011,0 C 8.709,31.071 -5.472,17.053 -5.472,0 c 0,-1.524 0.126,-3.043 0.352,-4.55 l 5.541,0 C 0.145,-3.048 0,-1.526 0,0" style="fill:#fefefe;fill-opacity:1;fill-rule:nonzero;stroke:none"/></g><g id="g200" transform="translate(391.4116,680.9468)"><path id="path202" d="m 0,0 -33.182,0 0,-65.923 33.182,0 0.106,0 33.183,0 L 33.289,0 0.106,0 0,0 z" style="fill:#414042;fill-opacity:1;fill-rule:nonzero;stroke:none"/></g><g id="g204" transform="translate(349.3457,680.9468)"><path id="path206" d="m 0,0 -9.462,0 -0.378,0 -9.462,0 -0.001,0 -9.84,0 0,-18.924 -10e-4,0 0,-9.841 0,-9.691 0,-0.149 0,-9.384 0,-0.307 0,-9.534 18.926,0 0,9.534 0,0.307 0,9.384 0,0.149 0,9.691 0,9.841 0.378,0 0.378,0 9.463,0 0.398,0 0.716,0 8.726,0 L 9.841,0 0.001,0 0,0 z" style="fill:#414042;fill-opacity:1;fill-rule:nonzero;stroke:none"/></g><g id="g208" transform="translate(452.8877,680.9468)"><path id="path210" d="m 0,0 -0.001,0 -9.462,0 -0.379,0 -9.461,0 -0.002,0 -9.839,0 0,-18.924 8.725,0 0.717,0 0.397,0 9.463,0 0.379,0 0.378,0 0,-9.841 0,-9.691 0,-0.149 0,-9.384 0,-0.307 0,-9.534 18.925,0 0,9.534 0,0.307 0,9.384 0,0.149 0,9.691 0,9.841 L 9.84,0 0,0 z" style="fill:#414042;fill-opacity:1;fill-rule:nonzero;stroke:none"/></g><g id="g212" transform="translate(453.7695,627.1924)"><path id="path214" d="m 0,0 c 7.887,0 14.28,-4.389 14.28,-9.804 0,-2.72 -1.614,-5.179 -4.217,-6.955 -1.759,3.163 -5.317,5.331 -9.427,5.331 -4.366,0 -8.115,-2.443 -9.739,-5.928 -3.162,1.798 -5.175,4.513 -5.175,7.552 C -14.278,-4.389 -7.886,0 0,0" style="fill:#414042;fill-opacity:1;fill-rule:nonzero;stroke:none"/></g><g id="g216" transform="translate(392.0103,760.8408)"><path id="path218" d="m 0,0 -1.09,0 c -3.731,0 -6.755,-3.024 -6.755,-6.755 0,-3.29 2.355,-6.024 5.47,-6.625 l 0,-24.412 1.776,0 0.107,0 1.777,0 0,24.412 c 3.115,0.601 5.469,3.335 5.469,6.625 C 6.754,-3.024 3.731,0 0,0" style="fill:#414042;fill-opacity:1;fill-rule:nonzero;stroke:none"/></g><g id="g220" transform="translate(391.8672,632.3794)"><path id="path222" d="m 0,0 c -0.118,0 -0.233,0.011 -0.349,0.018 l 0,0.006 C -0.367,0.023 -0.384,0.021 -0.402,0.021 c -0.018,0 -0.036,0.002 -0.054,0.003 l 0,-0.006 C -0.572,0.011 -0.687,0 -0.805,0 -9.409,0 -16.41,7.001 -16.41,15.605 c 0,8.605 7.001,15.605 15.605,15.605 0.118,0 0.233,-0.01 0.349,-0.018 l 0,-0.005 c 0.018,10e-4 0.036,0.002 0.054,0.003 0.018,-0.001 0.035,-0.002 0.053,-0.003 l 0,0.005 C -0.233,31.2 -0.118,31.21 0,31.21 c 8.604,0 15.605,-7 15.605,-15.605 C 15.605,7.001 8.604,0 0,0 m 0,36.683 c -0.136,0 -0.268,-0.015 -0.402,-0.02 -0.135,0.005 -0.267,0.02 -0.403,0.02 -11.622,0 -21.077,-9.455 -21.077,-21.078 0,-11.622 9.455,-21.077 21.077,-21.077 0.136,0 0.268,0.014 0.403,0.02 0.134,-0.006 0.266,-0.02 0.402,-0.02 11.622,0 21.077,9.455 21.077,21.077 0,11.623 -9.455,21.078 -21.077,21.078" style="fill:#fefefe;fill-opacity:1;fill-rule:nonzero;stroke:none"/></g><g id="g224" transform="translate(391.8672,658.6108)"><path id="path226" d="M 0,0 C -0.136,0 -0.268,-0.013 -0.402,-0.02 -0.537,-0.013 -0.669,0 -0.805,0 -6.673,0 -11.43,-4.757 -11.43,-10.626 c 0,-5.869 4.757,-10.626 10.625,-10.626 0.136,0 0.268,0.013 0.403,0.02 0.134,-0.007 0.266,-0.02 0.402,-0.02 5.868,0 10.626,4.757 10.626,10.626 C 10.626,-4.757 5.868,0 0,0" style="fill:#fefefe;fill-opacity:1;fill-rule:nonzero;stroke:none"/></g><g id="g228" transform="translate(409.3047,687.6646)"><path id="path230" d="m 0,0 c 0,9.57 -7.896,17.338 -17.678,17.437 l 0,-0.01 c -0.054,-0.001 -0.108,-0.006 -0.162,-0.01 -0.054,0.004 -0.107,0.009 -0.162,0.01 l 0,0.01 C -27.782,17.338 -35.679,9.57 -35.679,0 c 0,-0.969 0.091,-1.917 0.246,-2.842 l 35.186,0 C -0.091,-1.917 0,-0.969 0,0" style="fill:#fefefe;fill-opacity:1;fill-rule:nonzero;stroke:none"/></g><g id="g232" transform="translate(373.8721,684.8228)"><path id="path234" d="m 0,0 c 0.098,-0.57 0.213,-1.136 0.364,-1.687 l 17.02,0 0,-0.01 0.156,0 0.106,0 0.156,0 0,0.01 17.019,0 C 34.973,-1.136 35.089,-0.57 35.186,0 L 0,0 z" style="fill:#fefefe;fill-opacity:1;fill-rule:nonzero;stroke:none"/></g><g id="g236" transform="translate(373.6255,565.4053)"><path id="path238" d="m 0,0 0,8.939 0,10.368 0,10.367 0,10.368 0,10.366 -15.439,0 0,-10.366 0,-10.368 0,-10.367 0,-10.368 0,-5.708 C -26.573,1.669 -35.12,-7.297 -35.12,-18.16 c 0,-1.944 0.279,-3.828 0.791,-5.622 l 22.03,0 0,-0.012 22.091,0 c 0.513,1.794 0.791,3.677 0.791,5.623 C 10.583,-10.544 6.362,-3.857 0,0" style="fill:#414042;fill-opacity:1;fill-rule:nonzero;stroke:none"/></g><g id="g240" transform="translate(424.7441,568.6367)"><path id="path242" d="m 0,0 0,5.708 0,10.367 0,10.367 0,10.368 0,10.367 -15.439,0 0,-10.367 0,-10.368 0,-10.367 0,-10.367 0,-8.939 c -6.363,-3.857 -10.584,-10.545 -10.584,-18.171 0,-1.946 0.279,-3.83 0.791,-5.623 l 22.091,0 0,0.012 22.03,0 c 0.512,1.793 0.792,3.678 0.792,5.622 C 19.681,-10.528 11.133,-1.562 0,0" style="fill:#414042;fill-opacity:1;fill-rule:nonzero;stroke:none"/></g></g></g></g></svg>