<svg xmlns="http://www.w3.org/2000/svg" xmlns:svg="http://www.w3.org/2000/svg" id="svg3697" width="744.094" height="1052.362" version="1.1"><defs id="defs3699"><clipPath id="clipPath132" clipPathUnits="userSpaceOnUse"><path id="path134" d="M 0,800 800,800 800,0 0,0 0,800 z"/></clipPath><clipPath id="clipPath184" clipPathUnits="userSpaceOnUse"><path id="path186" d="M 0,800 800,800 800,0 0,0 0,800 z"/></clipPath><clipPath id="clipPath254" clipPathUnits="userSpaceOnUse"><path id="path256" d="M 0,800 800,800 800,0 0,0 0,800 z"/></clipPath><clipPath id="clipPath254-3" clipPathUnits="userSpaceOnUse"><path id="path256-6" d="M 0,800 800,800 800,0 0,0 0,800 z"/></clipPath><clipPath id="clipPath304" clipPathUnits="userSpaceOnUse"><path id="path306" d="M 0,800 800,800 800,0 0,0 0,800 z"/></clipPath><clipPath id="clipPath364" clipPathUnits="userSpaceOnUse"><path id="path366" d="M 0,800 800,800 800,0 0,0 0,800 z"/></clipPath></defs><metadata id="metadata3702"/><g id="layer1"><g id="g360" transform="matrix(1.25,0,0,-1.25,-120.48226,1036.1489)"><g id="g362" clip-path="url(#clipPath364)"><g id="g368" transform="translate(389.4604,492.4209)"><path style="fill:#414042;fill-opacity:1;fill-rule:nonzero;stroke:none" id="path370" d="m 0,0 0,0.001 c -0.013,0 -0.025,0.002 -0.039,0.002 -0.016,0 -0.032,-0.002 -0.047,-0.002 -0.017,0 -0.033,0.002 -0.048,0.002 -0.013,0 -0.026,-0.002 -0.039,-0.002 l 0,-0.001 c -19.683,-0.074 -35.619,-16.048 -35.619,-35.75 l 35.619,0 0.173,0 35.619,0 C 35.619,-16.048 19.684,-0.074 0,0"/></g><path style="fill:#414042;fill-opacity:1;fill-rule:nonzero;stroke:none" id="path372" d="m 406.226,421.013 -31.808,0 0,39.105 31.808,0 0,-39.105 z"/><g id="g374" transform="translate(432.4814,379.5215)"><path style="fill:#414042;fill-opacity:1;fill-rule:nonzero;stroke:none" id="path376" d="m 0,0 c 0,-4.973 -4.032,-9.006 -9.007,-9.006 l -64.505,0 c -4.974,0 -9.007,4.033 -9.007,9.006 l 0,54.317 c 0,4.975 -1.439,9.007 3.535,9.007 l 75.45,0 C 1.439,63.324 0,59.292 0,54.317 L 0,0 z"/></g><path style="fill:#fff;fill-opacity:1;fill-rule:nonzero;stroke:none" id="path378" d="m 405.251,397.036 -30.771,0 0,19.291 30.771,0 0,-19.291 z m 3.01,16.452 0,5.948 -36.795,0 0,-25.511 36.795,0 0,5.846 c 1.218,0 3.977,-0.227 3.977,2.054 l 0,9.22 c 0,2.752 -2.921,2.443 -3.977,2.443"/><path style="fill:#fff;fill-opacity:1;fill-rule:nonzero;stroke:none" id="path380" d="m 377.056,413.745 7.589,0 0,-14.134 -7.589,0 0,14.134 z"/><path style="fill:#fff;fill-opacity:1;fill-rule:nonzero;stroke:none" id="path382" d="m 386.074,413.745 7.586,0 0,-14.134 -7.586,0 0,14.134 z"/><path style="fill:#fff;fill-opacity:1;fill-rule:nonzero;stroke:none" id="path384" d="m 395.335,413.745 7.583,0 0,-14.133 -7.583,0 0,14.133 z"/><path style="fill:#414042;fill-opacity:1;fill-rule:nonzero;stroke:none" id="path386" d="m 378.977,371.271 -19.733,0 0,-18.215 19.733,0 0,18.215 z"/><path style="fill:#414042;fill-opacity:1;fill-rule:nonzero;stroke:none" id="path388" d="m 359.666,341.97 19.733,0 0,7.59 -19.733,0 0,-7.59 z"/><path style="fill:#414042;fill-opacity:1;fill-rule:nonzero;stroke:none" id="path390" d="m 359.666,330.418 19.733,0 0,7.59 -19.733,0 0,-7.59 z"/><g id="g392" transform="translate(390.4468,313.6348)"><path style="fill:#414042;fill-opacity:1;fill-rule:nonzero;stroke:none" id="path394" d="m 0,0 -41.828,0 c 0,11.552 9.363,20.914 20.914,20.914 C -9.364,20.914 0,11.552 0,0"/></g><path style="fill:#414042;fill-opacity:1;fill-rule:nonzero;stroke:none" id="path396" d="m 424.809,371.271 -19.734,0 0,-18.215 19.734,0 0,18.215 z"/><path style="fill:#414042;fill-opacity:1;fill-rule:nonzero;stroke:none" id="path398" d="m 405.496,341.97 19.733,0 0,7.59 -19.733,0 0,-7.59 z"/><path style="fill:#414042;fill-opacity:1;fill-rule:nonzero;stroke:none" id="path400" d="m 405.496,330.418 19.733,0 0,7.59 -19.733,0 0,-7.59 z"/><g id="g402" transform="translate(436.2783,313.6348)"><path style="fill:#414042;fill-opacity:1;fill-rule:nonzero;stroke:none" id="path404" d="m 0,0 -41.829,0 c 0,11.552 9.363,20.914 20.914,20.914 C -9.364,20.914 0,11.552 0,0"/></g><g id="g406" transform="translate(354.04,442.8452)"><path style="fill:#414042;fill-opacity:1;fill-rule:nonzero;stroke:none" id="path408" d="m 0,0 -18.053,0 c -3.47,0 -6.284,-2.813 -6.284,-6.283 l 0,-54.677 c 0,-3.47 2.814,-6.285 6.284,-6.285 3.47,0 6.282,2.815 6.282,6.285 l 0,46.967 11.771,0 c 3.501,0 6.337,3.132 6.337,6.997 C 6.337,-3.132 3.501,0 0,0"/></g><g id="g410" transform="translate(348.6187,377.999)"><path style="fill:#414042;fill-opacity:1;fill-rule:nonzero;stroke:none" id="path412" d="m 0,0 c 0,3.112 -2.523,5.636 -5.636,5.636 l -14.122,0 c -3.113,0 -5.636,-2.524 -5.636,-5.636 0,-0.034 0.009,-0.065 0.01,-0.1 -0.083,-0.343 -0.139,-0.697 -0.139,-1.067 l 0,-6.867 c 0,-2.505 2.029,-4.536 4.533,-4.536 2.506,0 4.535,2.031 4.535,4.536 l 0,2.397 7.387,0 0,-2.397 c 0,-2.505 2.03,-4.536 4.533,-4.536 2.506,0 4.535,2.031 4.535,4.536 l 0,6.867 c 0,0.198 -0.033,0.391 -0.059,0.583 C -0.038,-0.392 0,-0.201 0,0"/></g><g id="g414" transform="translate(428.4463,442.8452)"><path style="fill:#414042;fill-opacity:1;fill-rule:nonzero;stroke:none" id="path416" d="m 0,0 18.054,0 c 3.47,0 6.284,-2.813 6.284,-6.283 l 0,-54.676 c 0,-3.471 -2.814,-6.285 -6.284,-6.285 -3.471,0 -6.284,2.814 -6.284,6.285 l 0,46.966 -11.77,0 c -3.501,0 -6.338,3.132 -6.338,6.997 C -6.338,-3.132 -3.501,0 0,0"/></g><g id="g418" transform="translate(433.8682,377.999)"><path style="fill:#414042;fill-opacity:1;fill-rule:nonzero;stroke:none" id="path420" d="m 0,0 c 0,3.112 2.522,5.638 5.636,5.638 l 14.121,0 c 3.113,0 5.637,-2.526 5.637,-5.638 0,-0.033 -0.01,-0.064 -0.011,-0.1 0.083,-0.342 0.139,-0.697 0.139,-1.066 l 0,-6.867 c 0,-2.506 -2.029,-4.537 -4.533,-4.537 -2.506,0 -4.535,2.031 -4.535,4.537 l 0,2.397 -7.386,0 0,-2.397 c 0,-2.506 -2.03,-4.537 -4.534,-4.537 C 2.029,-12.57 0,-10.539 0,-8.033 l 0,6.867 c 0,0.197 0.034,0.39 0.06,0.582 C 0.038,-0.392 0,-0.201 0,0"/></g></g></g></g></svg>